<svg viewBox="0 0 100 100" fill="none">
<path d="M84.7721 77.7842L80.5479 61.5728C80.5469 61.5696 80.546 61.5659 80.5453 61.5624C80.2768 60.164 79.6213 58.9912 78.6918 58.25L67.6469 49.4431C67.5434 49.3585 67.4346 49.2833 67.3222 49.208C66.8503 48.8508 66.3522 48.6721 65.8408 48.6721H49.545L50.0627 44.6167C50.1438 43.9836 50.1314 43.3443 50.0258 42.7175L49.5986 38.4081C48.9324 39.1321 48.2414 39.8028 47.3946 40.0974L47.7025 43.2032C47.7082 43.2565 47.716 43.3129 47.7258 43.3693C47.7693 43.6075 47.7759 43.8488 47.7449 44.0902L46.9937 49.9759C46.9357 50.4303 47.0311 50.8973 47.2544 51.2483C47.4778 51.6025 47.8065 51.8062 48.1525 51.8062H65.8408C65.9457 51.8062 66.0559 51.85 66.1775 51.9472C66.2104 51.9723 66.2443 51.9973 66.2788 52.0193C66.3329 52.0537 66.3865 52.0882 66.4394 52.1321L77.485 60.9397C77.8884 61.2609 78.1698 61.7771 78.2773 62.392C78.2874 62.4506 78.3001 62.5086 78.3154 62.5653C78.3224 62.5916 78.3302 62.618 78.3382 62.6443L82.5514 78.8128C82.7025 79.3926 82.6753 80.0163 82.4745 80.5685C82.2737 81.1213 81.9234 81.5363 81.4887 81.7375C81.3049 81.8227 81.1144 81.866 80.9228 81.866C80.1896 81.866 79.535 81.2448 79.2943 80.3209L75.2958 64.9763C75.2052 64.6284 75.0259 64.3345 74.7889 64.1455L69.5326 59.954C69.3501 59.8086 69.1416 59.7318 68.9291 59.7318H43.6403C43.0382 59.7318 42.1639 58.188 42.1639 55.7676C42.1639 55.2442 42.209 54.724 42.2981 54.2194C42.3 54.2068 42.3019 54.1974 42.3035 54.188C42.3047 54.1818 42.3059 54.1755 42.3073 54.1692C42.3797 53.7712 42.478 53.4077 42.599 53.0817C42.6193 53.0253 42.6369 52.972 42.6522 52.9156L44.9707 44.3221C45.0342 44.087 45.0546 43.8332 45.03 43.5856L44.7194 40.4547C43.9187 40.4421 43.1163 40.345 42.3237 40.2102L42.6618 43.6169L40.4615 51.7748C40.2861 52.2606 40.1437 52.7903 40.0374 53.3481C40.0195 53.4233 40.0057 53.4985 39.9963 53.5769C39.996 53.58 39.996 53.58 39.9958 53.58C39.8745 54.2946 39.8129 55.0311 39.8129 55.7676C39.8129 59.7484 41.4941 62.8659 43.6403 62.8659H68.6044L73.2154 66.543L77.0733 81.3495C77.6425 83.533 79.1895 84.9997 80.9228 85C81.3777 85 81.8275 84.8985 82.2598 84.6985C83.2882 84.2221 84.1159 83.2406 84.5904 81.9346C85.0648 80.629 85.1294 79.1547 84.7721 77.7842Z" fill="#211C1D"/>
<path d="M45.171 18.134C40.7458 18.134 37.1457 22.9322 37.1457 28.8304C37.1457 34.7318 40.7458 39.5301 45.171 39.5301C49.596 39.5301 53.1963 34.7318 53.1963 28.8304C53.1963 22.9322 49.596 18.134 45.171 18.134ZM45.171 42.6641C39.4495 42.6641 34.7947 36.4587 34.7947 28.8304C34.7947 21.2053 39.4495 14.9999 45.171 14.9999C50.8926 14.9999 55.5473 21.2053 55.5473 28.8304C55.5473 36.4587 50.8926 42.6641 45.171 42.6641Z" fill="#211C1D"/>
<path d="M45.171 26.3014C44.1251 26.3014 43.2743 27.4359 43.2743 28.8305C43.2743 30.2252 44.1251 31.3597 45.171 31.3597C46.217 31.3597 47.0678 30.2252 47.0678 28.8305C47.0678 27.4359 46.217 26.3014 45.171 26.3014ZM45.171 34.4937C42.8288 34.4937 40.9233 31.9551 40.9233 28.8305C40.9233 25.709 42.8288 23.1673 45.171 23.1673C47.5133 23.1673 49.4188 25.709 49.4188 28.8305C49.4188 31.9551 47.5133 34.4937 45.171 34.4937Z" fill="#211C1D"/>
<path d="M36.0311 50.609C34.1442 50.609 32.609 52.6556 32.609 55.1691C32.609 57.6854 34.1442 59.7319 36.0311 59.7319C37.918 59.7319 39.4532 57.6854 39.4532 55.1691C39.4532 52.6556 37.918 50.609 36.0311 50.609ZM36.0311 62.8659C32.8479 62.8659 30.2581 59.4135 30.2581 55.1691C30.2581 50.9256 32.8479 47.475 36.0311 47.475C39.2143 47.475 41.8042 50.9256 41.8042 55.1691C41.8042 59.4135 39.2143 62.8659 36.0311 62.8659Z" fill="#211C1D"/>
<path d="M19.0006 85C18.3515 85 17.8251 84.2986 17.8251 83.433V44.2719L15.1873 38.8124C14.8359 38.0853 14.9934 37.1169 15.539 36.6468C16.0847 36.1798 16.8123 36.3898 17.1638 37.1169L19.989 42.965C20.1112 43.2158 20.1761 43.5103 20.1761 43.8112V83.433C20.1761 84.2986 19.65 85 19.0006 85Z" fill="#211C1D"/>
<path d="M19.0006 85C18.3515 85 17.8251 84.2986 17.8251 83.433V43.8112C17.8251 43.5103 17.8902 43.2158 18.0125 42.965L20.8374 37.1169C21.1891 36.3898 21.9163 36.1798 22.4622 36.6468C23.0079 37.1169 23.1654 38.0853 22.8139 38.8124L20.1761 44.2719V83.433C20.1761 84.2986 19.65 85 19.0006 85Z" fill="#211C1D"/>
<path d="M30.6742 68.7454H65.8124V67.5748H30.6742V68.7454ZM66.9879 71.8794H29.4987C28.8496 71.8794 28.3232 71.1777 28.3232 70.3124V66.0078C28.3232 65.1425 28.8496 64.4408 29.4987 64.4408H66.9879C67.637 64.4408 68.1634 65.1425 68.1634 66.0078V70.3124C68.1634 71.1777 67.637 71.8794 66.9879 71.8794Z" fill="#211C1D"/>
<path d="M36.7247 70.3186V81.866H35.3587V70.1331C34.574 70.0162 33.7904 69.8814 33.0078 69.7272V83.433C33.0078 84.2983 33.5341 85 34.1832 85H37.9001C38.5492 85 39.0756 84.2983 39.0756 83.433V70.5634C38.2911 70.496 37.5075 70.4151 36.7247 70.3186Z" fill="#211C1D"/>
<path d="M61.1276 69.7849V81.866H59.7617V69.8438C58.987 69.9081 58.2039 69.9225 57.4107 69.9206V83.433C57.4107 84.2983 57.9371 85 58.5862 85H62.3031C62.9522 85 63.4786 84.2983 63.4786 83.433V69.742C62.6947 69.762 61.9112 69.7755 61.1276 69.7849Z" fill="#211C1D"/>
</svg>
