<svg viewBox="0 0 100 100" fill="none" >
<path d="M73.6343 70.985H26.5302V67.3821H73.6343V70.985Z" fill="#211C1D"/>
<path d="M23.8479 56.9697C23.1735 56.9697 22.6246 57.7335 22.6246 58.6703V79.693C22.6246 80.6333 23.1735 81.3971 23.8479 81.3971C24.5226 81.3971 25.0715 80.6333 25.0715 79.693V58.6703C25.0715 57.7335 24.5226 56.9697 23.8479 56.9697ZM23.8479 85C21.7459 85 20.0356 82.6185 20.0356 79.693V58.6703C20.0356 55.7447 21.7459 53.3669 23.8479 53.3669C25.9502 53.3669 27.6605 55.7447 27.6605 58.6703V79.693C27.6605 82.6185 25.9502 85 23.8479 85Z" fill="#211C1D"/>
<path d="M17.589 75.9208C17.6913 76.1046 18.1298 76.4648 18.8123 76.4648C19.495 76.4648 19.9333 76.1046 20.0356 75.9208V62.4425C19.9333 62.2587 19.495 61.8985 18.8123 61.8985C18.1298 61.8985 17.6913 62.2587 17.589 62.4425V75.9208ZM18.8123 80.0677C16.6746 80.0677 15 78.2807 15 75.9965V62.3704C15 60.0862 16.6746 58.2956 18.8123 58.2956C20.95 58.2956 22.6246 60.0862 22.6246 62.3704V75.9965C22.6246 78.2807 20.95 80.0677 18.8123 80.0677Z" fill="#211C1D"/>
<path d="M79.9644 75.9208C80.0667 76.1046 80.505 76.4648 81.1877 76.4648C81.8702 76.4648 82.3087 76.1046 82.411 75.9208V62.4425C82.3087 62.2587 81.8702 61.8985 81.1877 61.8985C80.505 61.8985 80.0667 62.2587 79.9644 62.4425V75.9208ZM81.1877 80.0677C79.05 80.0677 77.3754 78.2807 77.3754 75.9965V62.3704C77.3754 60.0862 79.05 58.2956 81.1877 58.2956C83.3254 58.2956 85 60.0862 85 62.3704V75.9965C85 78.2807 83.3254 80.0677 81.1877 80.0677Z" fill="#211C1D"/>
<path d="M76.1519 56.9697C75.4774 56.9697 74.9288 57.7335 74.9288 58.6703V79.693C74.9288 80.6333 75.4774 81.3971 76.1519 81.3971C76.8263 81.3971 77.3752 80.6333 77.3752 79.693V58.6703C77.3752 57.7335 76.8263 56.9697 76.1519 56.9697ZM76.1519 85C74.0499 85 72.3398 82.6185 72.3398 79.693V58.6703C72.3398 55.7447 74.0499 53.3669 76.1519 53.3669C78.2541 53.3669 79.9642 55.7447 79.9642 58.6703V79.693C79.9642 82.6185 78.2541 85 76.1519 85Z" fill="#211C1D"/>
<path d="M50.0819 18.6028C47.7205 18.6028 45.799 21.2762 45.799 24.562C45.799 27.8478 47.7205 30.5247 50.0819 30.5247C52.4439 30.5247 54.3654 27.8478 54.3654 24.562C54.3654 21.2762 52.4439 18.6028 50.0819 18.6028ZM50.0819 34.1276C46.2927 34.1276 43.21 29.8366 43.21 24.562C43.21 19.291 46.2927 15 50.0819 15C53.8715 15 56.9544 19.291 56.9544 24.562C56.9544 29.8366 53.8715 34.1276 50.0819 34.1276Z" fill="#211C1D"/>
<path d="M57.2871 48.3408V51.3383L59.1763 50.661L57.2871 48.3408ZM55.9926 55.46C55.7083 55.46 55.4285 55.3267 55.1991 55.0817C54.883 54.7394 54.6981 54.2134 54.6981 53.6586V44.3488C54.6981 43.639 54.9964 42.9977 55.4603 42.7059C55.9243 42.4141 56.4679 42.5293 56.8493 42.9977L61.5797 48.8091C61.6866 48.9425 61.7772 49.0974 61.8479 49.2703L62.507 50.8808C62.732 51.432 62.7331 52.1058 62.5096 52.657C62.2921 53.1938 61.8929 53.5361 61.4523 53.5721L56.3139 55.4024C56.208 55.442 56.1 55.46 55.9926 55.46ZM40.9881 50.661L42.8773 51.3383V48.3408L40.9881 50.661ZM44.1718 55.46C44.0643 55.46 43.9566 55.442 43.8505 55.4024L38.7113 53.5721C38.2732 53.5325 37.874 53.1902 37.6581 52.6534C37.4354 52.1021 37.4326 51.432 37.6573 50.8808L38.3165 49.2703C38.3869 49.0974 38.4778 48.9425 38.5847 48.8091L43.3151 42.9977C43.6967 42.5293 44.2401 42.4141 44.704 42.7059C45.168 42.9977 45.4663 43.639 45.4663 44.3488V53.6586C45.4663 54.2134 45.2814 54.7394 44.9653 55.0817C44.7359 55.3267 44.456 55.46 44.1718 55.46ZM58.3452 58.2342C58.6297 58.2342 58.9094 58.3639 59.139 58.6125C59.4549 58.9548 59.6397 59.4808 59.6397 60.0357V76.0468C59.6397 76.3602 60.1019 76.9367 60.8571 76.9367C61.6123 76.9367 62.0744 76.3602 62.0744 76.0468V56.9408C62.0739 56.9336 62.0716 56.9156 62.0695 56.8976C62.0524 56.7535 62.0477 56.6057 62.056 56.4616C62.0581 56.4184 62.0612 56.3751 62.0648 56.3355C62.1391 55.5717 62.5562 54.9556 63.1012 54.8079C63.6475 54.6638 64.1984 55.0169 64.4729 55.687L68.2253 64.8635C68.2331 64.8815 68.2404 64.8995 68.2474 64.9211C68.3569 65.2093 68.5275 65.4363 68.7545 65.5913C68.9492 65.7246 69.1771 65.793 69.4124 65.793C69.4124 65.793 69.4124 65.793 69.4127 65.793C69.7021 65.793 69.9983 65.6885 70.2691 65.494C70.6525 65.213 70.9477 64.777 71.1004 64.2654C71.242 63.7898 71.2389 63.2854 71.0924 62.8783L64.5189 46.8059C64.5112 46.7843 64.5037 46.7663 64.4964 46.7483C64.4672 46.669 64.4187 46.5754 64.3486 46.4673C64.3097 46.4024 64.2738 46.3376 64.2414 46.2691C64.208 46.2007 64.1775 46.143 64.1498 46.0962L56.7351 36.7251C56.7126 36.6963 56.6906 36.6675 56.6696 36.6351C56.5063 36.3973 56.2971 36.246 56.0483 36.1847C55.9331 36.1595 55.8052 36.1523 55.6799 36.1667C55.6426 36.1703 55.605 36.1739 55.5677 36.1739H44.5971C44.5596 36.1739 44.5223 36.1703 44.485 36.1667C44.3589 36.1523 44.2316 36.1559 44.1156 36.1847C43.8673 36.246 43.6586 36.3973 43.4955 36.6351C43.4743 36.6675 43.4523 36.6963 43.4295 36.7251L36.0143 46.0962C35.9872 46.143 35.9571 46.2007 35.9245 46.2691C35.8916 46.3376 35.8554 46.4024 35.816 46.4673C35.7459 46.579 35.6972 46.669 35.6672 46.7483C35.6604 46.7663 35.6529 46.7879 35.6454 46.8059L29.072 62.8783C28.9254 63.2854 28.9226 63.7898 29.0644 64.2654C29.2169 64.777 29.5118 65.213 29.8955 65.494C30.3856 65.8507 30.9746 65.8867 31.4106 65.5913C31.6371 65.4363 31.8077 65.2093 31.9173 64.9211C31.9243 64.8995 31.9318 64.8815 31.9393 64.8635L35.6915 55.687C35.9657 55.0169 36.5145 54.6638 37.059 54.8079C37.603 54.952 38.0208 55.5645 38.0985 56.3247C38.1026 56.3679 38.106 56.4148 38.1083 56.458C38.1166 56.6057 38.1122 56.7535 38.0949 56.8976C38.0928 56.9156 38.0902 56.9336 38.0894 56.9516L38.0897 76.0468C38.0897 76.3602 38.5518 76.9367 39.3073 76.9367C40.0622 76.9367 40.5244 76.3602 40.5244 76.0468V60.0357C40.5244 59.4808 40.7092 58.9548 41.0253 58.6125C41.3412 58.2703 41.7529 58.1513 42.1402 58.2919L48.1687 60.4392H51.9548C51.9716 60.4392 51.9884 60.4356 52.0055 60.4356L58.0239 58.2919C58.1301 58.2522 58.238 58.2342 58.3452 58.2342ZM60.8571 80.5395C58.7582 80.5395 57.0507 78.522 57.0507 76.0468V62.3559L52.587 63.9483C52.4498 63.9988 52.3095 64.024 52.1601 64.0348C52.1208 64.0384 52.0811 64.042 52.0413 64.042H48.0804C48.02 64.042 47.9605 64.0384 47.902 64.024C47.7888 64.0096 47.6819 63.9844 47.5786 63.9483L43.1134 62.3559V76.0468C43.1134 78.522 41.4059 80.5395 39.3073 80.5395C37.2084 80.5395 35.5007 78.522 35.5007 76.0468V63.4368L34.1995 66.6181C33.8336 67.5764 33.2633 68.3402 32.5482 68.8266C31.3845 69.6193 29.9046 69.5652 28.6963 68.6861C27.7754 68.016 27.0572 66.9387 26.6727 65.6453C26.2336 64.1717 26.2748 62.5469 26.7859 61.185C26.7931 61.167 26.8004 61.149 26.8081 61.1309L33.3857 45.0477C33.4978 44.7523 33.6379 44.4713 33.8119 44.1831C33.9245 43.9561 34.0402 43.7543 34.1637 43.5742C34.185 43.5453 34.207 43.5165 34.2295 43.4877L41.6586 34.0986C42.1979 33.3312 42.8912 32.8268 43.6664 32.6395C43.9854 32.5602 44.3175 32.5386 44.6479 32.571H55.5165C55.8463 32.5386 56.1793 32.5602 56.4972 32.6395C57.2731 32.8268 57.9662 33.3312 58.506 34.0986L65.9351 43.4877C65.9582 43.5165 65.9804 43.5454 66.0019 43.5778C66.1246 43.7579 66.2396 43.9561 66.3522 44.1831C66.5267 44.4713 66.6668 44.7559 66.7791 45.0477L73.3565 61.1309C73.3637 61.149 73.3712 61.167 73.3785 61.185C73.8896 62.5469 73.931 64.1717 73.4921 65.6453C73.1072 66.9387 72.3884 68.016 71.4683 68.6861C70.8288 69.1509 70.1182 69.3959 69.4127 69.3959C69.4124 69.3959 69.4124 69.3959 69.4124 69.3959C68.7851 69.3959 68.1642 69.2013 67.6169 68.8266C66.9013 68.3402 66.331 67.5764 65.9652 66.6217L64.6634 63.4368V76.0468C64.6634 78.522 62.956 80.5395 60.8571 80.5395Z" fill="#211C1D"/>
<path d="M36.8168 58.4036C36.6006 58.4036 36.3818 58.328 36.1804 58.1694C35.5583 57.6795 35.3392 56.5806 35.6916 55.7159L37.6561 50.8844C38.0082 50.0198 38.7984 49.7135 39.4203 50.2035C40.0424 50.6935 40.2612 51.7924 39.9091 52.6606L37.9445 57.4885C37.7063 58.0758 37.268 58.4036 36.8168 58.4036Z" fill="#211C1D"/>
<path d="M63.3474 58.4036C62.8961 58.4036 62.4578 58.0758 62.2196 57.4885L60.2554 52.6606C59.903 51.7924 60.1218 50.6935 60.7442 50.2035C61.3661 49.7135 62.156 50.0198 62.5083 50.8844L64.4729 55.7159C64.825 56.5806 64.6062 57.6795 63.9838 58.1694C63.7826 58.328 63.5633 58.4036 63.3474 58.4036Z" fill="#211C1D"/>
</svg>
