<svg viewBox="0 0 100 100" fill="none" >
<path d="M72.1569 33.7423L70.0892 67.7481C69.7639 73.0956 65.9948 77.2846 61.5088 77.2846H38.2099C33.6792 77.2846 29.9077 73.0514 29.6238 67.6472L27.8371 33.6413C27.6866 30.778 28.5088 28.0496 30.1522 25.9584C31.7957 23.8673 34.0227 22.7154 36.4231 22.7154H63.5767C65.9932 22.7154 68.2308 23.8805 69.8764 25.9954C71.5223 28.1103 72.3323 30.8616 72.1569 33.7423ZM72.9578 28.9516C72.4998 27.437 71.7999 26.068 70.8777 24.8826C69.9552 23.6973 68.8636 22.7638 67.6328 22.108C66.3543 21.4272 64.9896 21.0816 63.5767 21.0816H36.4231C35.0194 21.0816 33.6626 21.423 32.3908 22.0958C31.1657 22.7437 30.0773 23.667 29.1557 24.8398C28.234 26.0128 27.5313 27.3687 27.0669 28.8706C26.5847 30.4298 26.3848 32.0695 26.4728 33.7438L28.2594 67.7497C28.419 70.786 29.5286 73.6056 31.3844 75.6882C33.24 77.7711 35.6641 78.9184 38.2099 78.9184H61.5088C64.0362 78.9184 66.4474 77.7854 68.2983 75.7283C70.1491 73.6714 71.2694 70.8792 71.4526 67.8667L73.5204 33.8606C73.623 32.1765 73.4335 30.5247 72.9578 28.9516Z"/>
<path d="M51.1301 42.6169L49.171 37.824C49.0053 37.4186 48.5961 37.2503 48.2567 37.4484C47.9176 37.6464 47.777 38.1357 47.9427 38.541L49.6087 42.6169H39.5749C39.6942 40.4183 40.2919 38.3731 41.2445 36.6286L42.2103 37.7826C42.3437 37.9423 42.5186 38.022 42.6938 38.022C42.8687 38.022 43.0436 37.9423 43.1769 37.7826C43.4439 37.4638 43.4439 36.9464 43.1769 36.6274L42.0736 35.3088C42.9112 34.1433 43.9253 33.1641 45.0659 32.4306L45.6825 34.4543C45.7834 34.7861 46.0456 34.992 46.3247 34.992C46.4024 34.992 46.4814 34.976 46.5585 34.9425C46.9133 34.7883 47.0961 34.3193 46.9671 33.8954L46.3136 31.7507C47.2574 31.3239 48.2659 31.0562 49.3165 30.9748V33.1347C49.3165 33.5858 49.6226 33.9516 50 33.9516C50.3774 33.9516 50.6835 33.5858 50.6835 33.1347V30.9748C51.7553 31.0579 52.7835 31.335 53.7439 31.777L52.9016 33.936C52.742 34.3447 52.8901 34.8308 53.2322 35.0215C53.3257 35.0736 53.4239 35.0983 53.5207 35.0983C53.7781 35.0983 54.0245 34.9235 54.1406 34.6264L54.9846 32.4633C56.1031 33.1921 57.0984 34.1579 57.9231 35.3044L56.8231 36.619C56.5561 36.9381 56.5561 37.4553 56.8231 37.7743C56.9565 37.934 57.1313 38.0137 57.3062 38.0137C57.4812 38.0137 57.6561 37.9337 57.7897 37.7743L58.7526 36.6234C59.7068 38.3692 60.3056 40.4161 60.4251 42.6169H51.1301ZM59.3967 34.8743C59.0776 34.3753 58.7302 33.8995 58.3539 33.4499C57.3671 32.2704 56.2318 31.3222 54.9754 30.6249C54.9681 30.6205 54.9605 30.6159 54.953 30.6117C54.9451 30.6073 54.9372 30.6034 54.9294 30.5993C54.82 30.5393 54.7099 30.4804 54.5988 30.4242C53.1418 29.6878 51.5945 29.3145 50 29.3145C48.4053 29.3145 46.8581 29.6878 45.4012 30.4242C45.3278 30.4614 45.2549 30.5 45.1821 30.5387C45.1792 30.5401 45.1763 30.5418 45.1734 30.5433C43.8578 31.2472 42.6719 32.2237 41.6461 33.4499C40.5611 34.7464 39.7095 36.2562 39.1144 37.9376C38.4981 39.679 38.1856 41.5281 38.1856 43.4338V44.2508H50.6993C50.7007 44.2508 50.7023 44.2508 50.7037 44.2508C50.7058 44.2508 50.7076 44.2508 50.7095 44.2508H61.8143V43.4338C61.8143 41.5281 61.5019 39.679 60.8856 37.9376C60.4969 36.8394 59.9979 35.8147 59.3967 34.8743Z"/>
</svg>
