<svg viewBox="0 0 100 100" fill="none">
<path d="M41.0702 35.4221H26.7906V39.1024H40.5222C40.2998 37.8291 40.4824 36.4084 41.0702 35.4221Z" fill="#211C1D"/>
<path d="M58.2466 35.4221C58.5299 35.7202 58.7629 36.1177 58.943 36.5593C60.1159 36.7507 60.8494 37.8143 61.1486 39.1024H73.3761V35.4221H58.2466Z" fill="#211C1D"/>
<path d="M24.0475 24.786C23.3591 24.786 22.7978 25.5662 22.7978 26.5231V47.9979C22.7978 48.9585 23.3591 49.7387 24.0475 49.7387C24.7386 49.7387 25.3 48.9585 25.3 47.9979V26.5231C25.3 25.5662 24.7386 24.786 24.0475 24.786ZM24.0475 53.419C21.8975 53.419 20.15 50.9863 20.15 47.9979V26.5231C20.15 23.5347 21.8975 21.1057 24.0475 21.1057C26.1976 21.1057 27.9478 23.5347 27.9478 26.5231V47.9979C27.9478 50.9863 26.1976 53.419 24.0475 53.419Z" fill="#211C1D"/>
<path d="M17.6478 44.1446C17.7511 44.3323 18.2012 44.7003 18.8976 44.7003C19.5966 44.7003 20.0441 44.3323 20.15 44.1446V30.3765C20.0441 30.1924 19.5966 29.8207 18.8976 29.8207C18.2012 29.8207 17.7511 30.1924 17.6478 30.3765V44.1446ZM18.8976 48.3807C16.7131 48.3807 15 46.5552 15 44.2219V30.3028C15 27.9695 16.7131 26.1404 18.8976 26.1404C21.0847 26.1404 22.7978 27.9695 22.7978 30.3028V44.2219C22.7978 46.5552 21.0847 48.3807 18.8976 48.3807Z" fill="#211C1D"/>
<path d="M79.85 44.1446C79.9559 44.3323 80.4034 44.7003 81.1024 44.7003C81.7988 44.7003 82.2489 44.3323 82.3522 44.1446V30.3765C82.2489 30.1924 81.7988 29.8207 81.1024 29.8207C80.4034 29.8207 79.9559 30.1924 79.85 30.3765V44.1446ZM81.1024 48.3807C78.9154 48.3807 77.2022 46.5552 77.2022 44.2219V30.3028C77.2022 27.9695 78.9154 26.1404 81.1024 26.1404C83.2869 26.1404 85 27.9695 85 30.3028V44.2219C85 46.5552 83.2869 48.3807 81.1024 48.3807Z" fill="#211C1D"/>
<path d="M75.9525 24.786C75.2614 24.786 74.7 25.5662 74.7 26.5231V47.9979C74.7 48.9585 75.2614 49.7387 75.9525 49.7387C76.6409 49.7387 77.2022 48.9585 77.2022 47.9979V26.5231C77.2022 25.5662 76.6409 24.786 75.9525 24.786ZM75.9525 53.419C73.8024 53.419 72.0522 50.9863 72.0522 47.9979V26.5231C72.0522 23.5347 73.8024 21.1057 75.9525 21.1057C78.1025 21.1057 79.85 23.5347 79.85 26.5231V47.9979C79.85 50.9863 78.1025 53.419 75.9525 53.419Z" fill="#211C1D"/>
<path d="M50.0834 18.6803C47.989 18.6803 46.2865 21.0504 46.2865 23.9616C46.2865 26.8727 47.989 29.2392 50.0834 29.2392C52.1778 29.2392 53.883 26.8727 53.883 23.9616C53.883 21.0504 52.1778 18.6803 50.0834 18.6803ZM50.0834 32.9195C46.5301 32.9195 43.6387 28.9006 43.6387 23.9616C43.6387 19.0189 46.5301 15 50.0834 15C53.6394 15 56.5308 19.0189 56.5308 23.9616C56.5308 28.9006 53.6394 32.9195 50.0834 32.9195Z" fill="#211C1D"/>
<path d="M60.627 62.6456C60.9024 62.6456 61.1724 62.7634 61.4028 62.9952C61.792 63.3854 61.9985 64.0368 61.9429 64.6992L60.7885 78.5263C60.7885 78.5447 60.7858 78.5631 60.7858 78.5778C60.709 79.2992 60.8017 80.0242 61.0347 80.5615C61.1406 80.8118 61.3737 81.235 61.7444 81.3086C61.7814 81.316 61.8185 81.3197 61.8555 81.3197C62.3957 81.3197 63.0656 80.4658 63.2165 79.0894L64.7814 60.2939C64.784 60.2755 64.7867 60.2608 64.7867 60.2424C64.8767 59.3812 64.7311 58.542 64.4001 57.9974C64.3921 57.979 64.3815 57.9642 64.371 57.9458C64.1221 57.5005 63.7355 57.2576 63.3383 57.2907L57.4734 59.1346C57.0816 59.2597 56.6685 59.1272 56.3534 58.7776C56.041 58.428 55.8556 57.9017 55.8556 57.3423V42.8344C55.8556 42.0873 56.184 41.4138 56.6844 41.1304C57.1822 40.8507 57.7568 41.0163 58.1301 41.5536L60.1557 44.4574C60.3887 44.7886 60.7011 44.9726 61.0374 44.9726L61.093 44.969C61.1301 44.969 61.1698 44.969 61.2068 44.969L61.2651 44.9726C61.4637 44.9726 61.7576 44.9064 62.033 44.5972L69.0099 36.7508C69.2668 36.4637 69.4257 36.0552 69.4601 35.6025C69.4945 35.1498 69.3991 34.7045 69.1926 34.3475C68.9596 33.9463 68.6101 33.7145 68.2368 33.7145C68.0382 33.7145 67.7443 33.7807 67.4636 34.0936L62.0541 40.1772C61.5484 40.7439 60.8229 40.7219 60.3384 40.1183L55.6782 34.3217C55.6544 34.296 55.6332 34.2628 55.6094 34.2334C55.4346 33.9831 55.2122 33.8138 54.9633 33.7476C54.9448 33.7439 54.9263 33.7365 54.9077 33.7292C54.5423 33.6077 54.0551 33.5525 53.3746 33.5525C52.9298 33.5525 52.4453 33.5746 51.9316 33.6004C51.3411 33.6298 50.7295 33.6593 50.0834 33.6593C49.44 33.6593 48.8284 33.6298 48.2379 33.6004C47.7242 33.5746 47.2397 33.5525 46.7922 33.5525C46.1144 33.5525 45.6272 33.6077 45.2618 33.7292C45.2432 33.7365 45.222 33.7439 45.2035 33.7476C44.9573 33.8138 44.7322 33.9831 44.5574 34.2334C44.5363 34.2628 44.5124 34.296 44.4912 34.3217L39.8285 40.1183C39.3439 40.7182 38.6184 40.7439 38.1127 40.1772L32.7032 34.0936C32.4252 33.7807 32.1286 33.7145 31.9327 33.7145C31.5594 33.7145 31.2099 33.9463 30.9742 34.3475C30.7677 34.7045 30.675 35.1498 30.7094 35.6025C30.7438 36.0552 30.9027 36.4637 31.1569 36.7508L38.1339 44.5972C38.4119 44.9064 38.7058 44.9726 38.9044 44.9726L38.96 44.969C38.9997 44.969 39.0368 44.969 39.0765 44.969L39.1321 44.9726C39.4684 44.9726 39.7808 44.7886 40.0138 44.4574L42.0367 41.5536C42.4127 41.0163 42.9846 40.8507 43.4851 41.1304C43.9855 41.4138 44.3112 42.0873 44.3112 42.8344V57.3423C44.3112 57.9017 44.1285 58.428 43.8134 58.7776C43.501 59.1272 43.0879 59.2597 42.696 59.1346L36.8312 57.2907C36.426 57.2576 36.05 57.5005 35.7985 57.9421C35.7906 57.9606 35.78 57.9753 35.7694 57.9937C35.4358 58.5383 35.2928 59.3812 35.3802 60.2424C35.3828 60.2571 35.3855 60.2755 35.3855 60.2939L36.9529 79.0894C37.1012 80.4658 37.7738 81.3197 38.3113 81.3197C38.3484 81.3197 38.3881 81.316 38.4251 81.3086C38.7932 81.235 39.0288 80.8118 39.1347 80.5615C39.3677 80.0242 39.4578 79.2992 39.3836 78.5778C39.381 78.5631 39.381 78.5447 39.3783 78.5263L38.2265 64.6992C38.1709 64.0368 38.3775 63.3854 38.7667 62.9952C39.1533 62.6051 39.6643 62.5389 40.0986 62.8186L45.14 66.0647C45.2671 66.1456 45.3836 66.256 45.4868 66.3885C46.4877 67.684 48.1214 68.398 50.0834 68.398C52.0481 68.398 53.6818 67.684 54.6827 66.3885C54.7859 66.256 54.9024 66.1456 55.0295 66.0647L60.0709 62.8186C60.2483 62.7045 60.439 62.6456 60.627 62.6456ZM61.8555 85C61.694 85 61.5272 84.9852 61.3657 84.9521C60.3066 84.7387 59.356 83.8296 58.7629 82.4569C58.2175 81.1945 58.003 79.6414 58.1619 78.081L59.0409 67.5368L56.3216 69.2886C54.8283 71.0883 52.6227 72.0783 50.0834 72.0783C47.5442 72.0783 45.3412 71.0883 43.8478 69.2886L41.1285 67.5368L42.0076 78.081C42.1638 79.6414 41.952 81.1945 41.4039 82.4569C40.8108 83.8296 39.8629 84.7387 38.8011 84.9521C38.6396 84.9852 38.4754 85 38.3113 85C36.3625 85 34.6494 82.674 34.329 79.5899C34.329 79.5715 34.3263 79.5568 34.3237 79.5384L32.7588 60.7392C32.5655 58.8438 32.9203 56.9889 33.7332 55.6382C34.562 54.1992 35.8515 53.4411 37.1727 53.6362C37.2257 53.6435 37.276 53.6546 37.3263 53.673L41.6634 55.0383V47.3464C40.9352 48.226 39.9926 48.6935 39.0182 48.6493C38.1074 48.6898 37.186 48.2628 36.4684 47.4569L29.4914 39.6104C28.6865 38.7087 28.1834 37.4206 28.0749 35.9889C27.9663 34.5573 28.2655 33.1514 28.9169 32.0326C29.6556 30.7629 30.7544 30.0342 31.9327 30.0342C32.8171 30.0342 33.6803 30.4611 34.3687 31.2339L38.9044 36.3312L42.6934 31.6204C43.2336 30.8659 43.9167 30.3543 44.6687 30.1446C45.2432 29.9569 45.9025 29.8722 46.7922 29.8722C47.2847 29.8722 47.7931 29.8943 48.3306 29.9237C49.4665 29.9753 50.703 29.9753 51.8389 29.9237C52.3764 29.8943 52.8848 29.8722 53.3746 29.8722C54.2669 29.8722 54.9236 29.9569 55.4982 30.1446C56.2528 30.3543 56.9333 30.8659 57.4761 31.6204L61.2651 36.3312L65.7981 31.2339C66.4866 30.4611 67.3524 30.0342 68.2368 30.0342C69.4124 30.0342 70.5112 30.7629 71.2526 32.0326C71.904 33.1514 72.2032 34.5573 72.0946 35.9889C71.9861 37.4206 71.4803 38.7087 70.6754 39.6141L63.6984 47.4569C63.0126 48.2297 62.1495 48.653 61.2651 48.653C61.2254 48.653 61.1883 48.653 61.1486 48.6493C60.1742 48.6935 59.2342 48.226 58.5034 47.3464V55.0383L62.8432 53.673C62.8935 53.6546 62.9438 53.6435 62.9941 53.6362C63.1318 53.6178 63.2695 53.6067 63.4072 53.6067C64.596 53.6067 65.7002 54.3501 66.4416 55.6493C67.2492 56.9963 67.6013 58.8475 67.4107 60.7392L65.8431 79.5384C65.8431 79.5568 65.8405 79.5715 65.8379 79.5899C65.5201 82.674 63.807 85 61.8555 85Z" fill="#211C1D"/>
</svg>
